<?xml version="1.0" standalone="no"?>
<!DOCTYPE svg PUBLIC "-//W3C//DTD SVG 20010904//EN"
 "http://www.w3.org/TR/2001/REC-SVG-20010904/DTD/svg10.dtd">
<svg version="1.0" xmlns="http://www.w3.org/2000/svg"
 width="125.000000pt" height="114.000000pt" viewBox="0 0 125.000000 114.000000"
 preserveAspectRatio="xMidYMid meet">

<g transform="translate(0.000000,114.000000) scale(0.100000,-0.100000)"
fill="#000000" stroke="none">
<path d="M700 876 c0 -187 3 -236 13 -236 7 0 44 11 83 23 l69 24 3 175 2 175
-72 33 c-40 18 -79 35 -85 37 -10 4 -13 -46 -13 -231z"/>
<path d="M490 796 l0 -214 43 10 c23 5 59 13 80 19 l37 10 0 154 0 155 -80 40
-80 40 0 -214z"/>
<path d="M270 725 l0 -175 48 6 c26 3 62 7 80 10 l32 5 0 127 0 128 -75 37
c-42 20 -78 37 -80 37 -3 0 -5 -79 -5 -175z"/>
<path d="M964 735 c24 -63 27 -60 -106 -103 -149 -50 -283 -85 -403 -108 -107
-20 -290 -24 -322 -6 -38 21 -26 -6 15 -32 109 -73 344 -57 697 46 77 22 147
42 156 45 11 3 19 -6 26 -29 l9 -33 37 72 c20 40 37 76 37 81 0 4 -34 25 -76
45 -56 28 -75 34 -70 22z"/>
<path d="M810 468 c-19 -5 -52 -14 -72 -19 l-38 -10 0 -99 c0 -55 3 -100 7
-100 5 0 43 12 85 26 l78 26 0 94 c0 102 2 100 -60 82z"/>
<path d="M568 411 l-78 -13 0 -160 c0 -147 1 -159 18 -154 9 2 43 10 76 17 32
7 60 18 62 24 3 6 3 76 2 155 l-3 145 -77 -14z"/>
<path d="M270 275 l0 -115 28 0 c15 0 51 3 80 6 l52 7 0 108 0 109 -80 0 -80
0 0 -115z"/>
</g>
</svg>
